<svg width="25" height="25" viewBox="0 0 25 25" fill="none" xmlns="http://www.w3.org/2000/svg">
<g clip-path="url(#clip0)">
<path d="M25.0002 12.5765C25.0002 5.62966 19.4033 -0.00158691 12.5002 -0.00158691C5.59394 -2.4414e-05 -0.00292969 5.62966 -0.00292969 12.5781C-0.00292969 18.8547 4.56895 24.0578 10.5439 25.0015V16.2125H7.37207V12.5781H10.5471V9.80466C10.5471 6.6531 12.4143 4.91248 15.2689 4.91248C16.6377 4.91248 18.0674 5.15779 18.0674 5.15779V8.25154H16.4908C14.9393 8.25154 14.4549 9.22185 14.4549 10.2172V12.5765H17.9205L17.3674 16.2109H14.4533V25C20.4283 24.0562 25.0002 18.8531 25.0002 12.5765Z" fill="#5549F8"/>
</g>
<defs>
<clipPath id="clip0">
<rect width="25" height="25" fill="white"/>
</clipPath>
</defs>
</svg>
