<svg width="25" height="25" viewBox="0 0 25 25" fill="none" xmlns="http://www.w3.org/2000/svg">
<path d="M7.85313 23.4375C17.2875 23.4375 22.4484 15.6203 22.4484 8.85311C22.4484 8.63436 22.4484 8.41248 22.4391 8.19373C23.4438 7.46637 24.311 6.56585 25 5.53436C24.0614 5.94819 23.0668 6.22093 22.0484 6.34373C23.1211 5.70254 23.9246 4.69369 24.3094 3.50467C23.3015 4.10174 22.1985 4.52088 21.0484 4.74373C20.2753 3.92033 19.2522 3.37486 18.1376 3.19179C17.0231 3.00873 15.8793 3.1983 14.8833 3.73114C13.8874 4.26397 13.095 5.11034 12.6288 6.13914C12.1626 7.16794 12.0487 8.32175 12.3047 9.42186C10.2652 9.3196 8.27003 8.78978 6.4485 7.86677C4.62698 6.94376 3.01982 5.64818 1.73125 4.06405C1.07709 5.19386 0.877459 6.5303 1.17288 7.80196C1.46831 9.07363 2.23665 10.1852 3.32187 10.9109C2.50866 10.8833 1.71331 10.6649 1 10.2734V10.3437C1.0014 11.5273 1.41142 12.6741 2.16074 13.5902C2.91006 14.5064 3.95273 15.1357 5.1125 15.3719C4.67229 15.4931 4.21755 15.5536 3.76094 15.5515C3.43904 15.5525 3.11778 15.5227 2.80156 15.4625C3.12935 16.4813 3.76761 17.3721 4.62695 18.0101C5.48628 18.6481 6.52365 19.0013 7.59375 19.0203C5.77587 20.4481 3.53031 21.2225 1.21875 21.2187C0.811439 21.2205 0.404411 21.197 0 21.1484C2.34612 22.6441 5.07078 23.4383 7.85313 23.4375V23.4375Z" fill="#5549F8"/>
</svg>
